<?xml version="1.0" standalone="no"?><!DOCTYPE svg PUBLIC "-//W3C//DTD SVG 1.1//EN" "http://www.w3.org/Graphics/SVG/1.1/DTD/svg11.dtd"><svg t="1509789786827" class="icon" style="" viewBox="0 0 1024 1024" version="1.1" xmlns="http://www.w3.org/2000/svg" p-id="2916" xmlns:xlink="http://www.w3.org/1999/xlink" width="200" height="200"><defs><style type="text/css"></style></defs><path d="M519.656917 825.483176c30.072335 0 55.333507-18.643261 65.562348-45.107224h-130.520742c9.624888 25.860008 34.8835 45.107224 64.958394 45.107224zM539.508087 216.801807c-4.212328-9.023492-11.429074-15.638843-19.848611-15.638842-8.422096 0-15.633725 6.615351-19.846053 15.638842 6.615351-0.601396 13.233261-2.405582 19.846053-2.405582 6.615351 0 13.233261 1.804187 19.848611 2.405582zM321.163125 707.422836l0.309654-0.52974h-0.309654v0.52974z" p-id="2917"></path><path d="M695.284883 642.638463v-215.32263c0-78.191655-75.182118-166.003079-175.627966-166.003079-100.443289 0-175.627966 87.811424-175.627967 166.003079v215.924025c0 4.212328-1.202791 7.820701-3.006977 11.429075l-45.961973 78.787932H744.604434l-46.312573-79.394446c-1.804187-3.608373-3.009537-7.211628-3.006978-11.423956z" p-id="2918"></path><path d="M512 0C229.228942 0 0 229.228942 0 512c0 282.771058 229.228942 512 512 512 282.771058 0 512-229.231501 512-512.002559C1024 229.228942 794.771058 0 512 0z m274.70724 780.378511H634.536258c-10.827679 51.725133-58.343043 91.422356-114.8819 91.422357-56.536298 0-104.051662-39.098387-114.879342-91.422357H253.809385c-8.419537 0-16.240238-4.212328-20.450007-11.429074a23.349501 23.349501 0 0 1 0-23.456984l63.154207-108.865386v-209.311234c0-80.597237 61.350021-167.208429 151.572146-199.084951 4.209769-42.102805 33.680709-73.380491 71.573745-73.380491 37.890477 0 67.363976 30.673731 71.576304 73.380491 89.620729 31.876522 151.572145 119.091669 151.572145 199.084951v209.311234l60.748626 104.054221c4.212328 4.209769 7.214187 9.622328 7.214187 16.23512 0 13.23582-10.827679 23.459544-24.05838 23.459544l-0.005118 0.002559z" p-id="2919"></path></svg>